<?xml version="1.0" standalone="no"?>
<!DOCTYPE svg PUBLIC "-//W3C//DTD SVG 20010904//EN"
 "http://www.w3.org/TR/2001/REC-SVG-20010904/DTD/svg10.dtd">
<svg version="1.0" xmlns="http://www.w3.org/2000/svg"
 width="512.000000pt" height="512.000000pt" viewBox="0 0 512.000000 512.000000"
>

<g transform="translate(0.000000,512.000000) scale(0.100000,-0.100000)"
stroke="none">
<path d="M1591 4486 c-69 -38 -67 -126 4 -175 61 -41 124 -163 180 -345 l24
-80 -54 -60 c-30 -34 -90 -105 -133 -159 -65 -83 -79 -95 -87 -81 -172 291
-353 417 -580 402 -99 -6 -112 -24 -132 -169 -19 -146 -13 -425 12 -514 34
-122 74 -174 177 -235 40 -24 106 -67 146 -97 67 -50 73 -57 67 -81 -32 -126
-34 -349 -5 -491 38 -187 129 -378 242 -509 16 -18 26 -37 23 -41 -6 -11 -124
-81 -203 -120 -35 -18 -112 -48 -170 -68 -134 -45 -264 -54 -386 -29 -99 20
-240 21 -319 0 -135 -35 -269 -119 -348 -217 -38 -49 -41 -55 -37 -104 8 -91
103 -223 223 -309 251 -179 681 -233 1020 -129 195 60 373 170 523 323 40 41
75 72 78 70 2 -3 9 -32 15 -65 9 -48 7 -78 -6 -147 -14 -79 -14 -93 0 -147 20
-81 83 -225 113 -260 19 -24 32 -29 67 -29 36 0 52 7 97 44 71 58 172 122 284
180 219 115 367 304 418 536 8 36 17 117 21 180 9 168 8 165 63 181 72 19 199
75 285 126 l77 45 73 -31 c184 -78 373 -88 565 -29 194 59 421 215 737 509
138 127 417 417 438 454 4 8 8 30 9 50 1 39 -26 76 -74 101 -32 17 -151 59
-192 69 -130 29 -299 23 -431 -16 -77 -23 -313 -142 -554 -281 -84 -48 -155
-88 -156 -88 -1 0 -5 76 -9 170 -14 362 -98 645 -252 849 l-56 75 17 50 c58
176 9 382 -126 529 -94 103 -259 185 -347 173 -80 -11 -167 -75 -193 -143 -22
-59 -3 -160 40 -208 10 -11 22 -31 26 -43 6 -20 4 -23 -12 -18 -47 14 -219 36
-326 41 l-118 5 -58 59 c-126 127 -326 232 -557 291 -90 23 -110 24 -143 6z"/>
</g>
</svg>
